<?xml version="1.0" encoding="UTF-8"?>
<!DOCTYPE svg  PUBLIC '-//W3C//DTD SVG 1.1//EN'  'http://www.w3.org/Graphics/SVG/1.1/DTD/svg11.dtd'>
<svg width="89.833px" height="365px" enable-background="new 154.667 0 89.833 365" version="1.1" viewBox="154.667 0 89.833 365" xml:space="preserve" xmlns="http://www.w3.org/2000/svg">
	 <filter id="a">
        <feGaussianBlur in="SourceGraphic" stdDeviation=".4"/>
    </filter>
			<g transform="translate(27.5 321) rotate(180) translate(-27.5 -42)">
			<path d="m-109.42 113.44c0.836-11.843 7.398-14.059 7.785-22.531 0.442-9.678-6.674-16.329-14.576-16.235-2.963 0.035-5.604 1.12-7.754 2.944" fill="none" stroke="#0c0c0c" stroke-width="1.107"/>
			<path d="m-116.49 112.97c0.171-9.343-0.179-28.403-4.332-25.477-4.06 2.86-0.481 4.991 5.166 5.627 5.796 0.653 7.298-4.605 4.336-5.166-4.919-0.933-3.19 16.707-3.071 25.142" fill="none" filter="url(#a)" stroke="#FFAE42"/>
			<path d="m-129.71 93.618c1.11 6.793 7.746 10.157 8.524 19.57" fill="none" stroke="#0c0c0c" stroke-width="1.107"/>
				<path d="m-115.53 132.3c-0.67 0-1.146-0.063-1.405-0.119-0.063-0.354-0.112-0.968-0.112-1.508 0-0.509-0.387-0.937-0.892-0.994-0.02-2e-3 -1.922-0.234-2.405-1.585-0.775-2.168-1.646-9.407-1.026-12.725 1.054-0.161 3.246-0.302 5.864-0.302 3.479 0 5.494 0.242 6.254 0.439 0.349 5.862-0.193 12.495-1.729 13.391-0.485 0.282-1.117 0.524-1.827 0.699-0.44 0.107-0.752 0.498-0.762 0.95-0.014 0.706-0.163 1.366-0.298 1.572-0.269 0.092-0.871 0.182-1.662 0.182m0 1c0.83 0 1.676-0.094 2.123-0.287 0.77-0.332 0.832-2.205 0.837-2.445 0.783-0.192 1.502-0.462 2.093-0.807 3.104-1.811 2.185-14.898 2.185-14.898-0.647-0.57-3.957-0.795-7.214-0.795-2.938 0-5.834 0.183-6.693 0.458-0.941 3.259 0.073 11.556 0.914 13.905 0.708 1.979 3.238 2.242 3.238 2.242s0 1.614 0.271 2.183c0.138 0.29 1.179 0.444 2.246 0.444z" fill="#0c0c0c"/>
		</g>
		<path d="m170.29 228.62c-0.483-28.717 0.509-72.45-0.225-86.74-0.792-15.403-1.581-46.625-1.5-76.346 0.092-33.787 0.469-63.542 0.469-63.542" fill="none" stroke="#0c0c0c" stroke-width="2"/>
	<g transform="translate(1 1)">
			<g transform="translate(27.5 321) rotate(180) translate(-27.5 -42)">
			<path d="m-159.92 151.78c1.891-12.996 10.599-31.012 8.377-40.905-1.218-5.426-5.177-12.761-16.625-12.625-11.447 0.136-16.389 5.862-17.375 11.375-1.91 10.673 5.866 29.313 7.96 41.917" fill="none" stroke="#0c0c0c"/>
			<path d="m-170.41 150.79c-0.386-12.396 0.75-37.3-4.759-36.71-4.04 0.432-2.391 7.15 6.145 8.044 7.69 0.805 11.394-6.288 7.165-7.38-7.092-1.832-6.926 24.228-6.478 36.48" fill="none" filter="url(#a)" stroke="#FFAE42"/>
			<path d="m-177.25 174.18c0.277 0.709 1.146 1.281 2.353 1.7 4e-3 0.272 0.05 1.866 0.591 2.466 0.542 0.598 7.326 0.694 9.563 0.184 1.797-0.41 1.832-2.882 1.832-2.882l-0.049 1e-3c0.467-0.179 0.912-0.374 1.305-0.603 4.496-2.624 3.165-21.582 3.165-21.582-1.784-1.574-17.524-1.33-20.148-0.49-1.364 4.722 0.072 17.841 1.388 21.206z" fill="#0c0c0c"/>
		</g>
		<path d="m220.83 3.333s1.835 25.235 1.981 51.844c0.153 27.608 0.714 50.258-0.147 58.489-1.177 11.253 0.193 46.37-0.608 69.086l3.771-2e-3c-0.038-29.161-0.294-54.72 0.838-67.084 1.211-13.24-0.422-35.436-0.41-60.024 0.013-26.366-1.258-52.142-1.258-52.142l-4.167-0.167z" fill="#0c0c0c"/>
	</g>
			<g transform="translate(27.5 321) rotate(180) translate(-27.5 -42)">
			<path d="m-127.29 63.249c1.243-11.958 5.409-15.68 9.625-20.589 3.455-4.023 9.061-11.69 6.167-24.577-1.451-6.463-11.839-19.245-25.476-19.084s-21.358 5.661-25.858 19.828c-2.301 7.244 0.334 18.833 6.167 24.5 3.249 3.156 7.065 8.45 8.518 19.55" fill="none" stroke="#0c0c0c"/>
			<path d="m-140.74 62.419c0.954-13.848 0.396-38.324-6.008-37.211-4.769 0.829-1.619 5.903 8.125 7 10 1.125 12.736-9.031 7.625-10-8.459-1.604-6.613 25.949-5.183 40.064" fill="none" filter="url(#a)" stroke="#FFAE42"/>
			<path d="m-147.85 90.094c0.486 1.242 2.485 2.139 5.073 2.605l-0.039 1e-3s0 2.784 0.515 3.764c0.47 0.894 6.36 1.036 8.304 0.273 1.56-0.612 1.589-4.3 1.589-4.3l-0.354 9e-3c1.312-0.314 2.511-0.751 3.488-1.321 5.354-3.125 3.771-25.708 3.771-25.708-2.125-1.875-20.875-1.584-24-0.584-1.625 5.625 0.085 21.252 1.653 25.261z" fill="#0c0c0c"/>
		</g>
		<path d="m195.21 264.46c-1.172-32.456-0.624-83.622-2.042-99.956-1.511-17.405 1.005-51.244 1.159-84.833 0.176-38.186-1.075-75.667-1.075-75.667" fill="none" stroke="#0c0c0c"/>
		<path d="m190.58 264.33c-0.224-40.473-1.201-81.25-2.474-98-1.443-19 2.131-50.715 2.115-86-0.016-37.836-2.474-75.334-2.474-75.334" fill="none" stroke="#0c0c0c"/>
</svg>
