<?xml version="1.0" encoding="utf-8"?>
<!-- Generator: Adobe Illustrator 16.0.0, SVG Export Plug-In . SVG Version: 6.00 Build 0)  -->
<!DOCTYPE svg PUBLIC "-//W3C//DTD SVG 1.1//EN" "http://www.w3.org/Graphics/SVG/1.1/DTD/svg11.dtd">
<svg version="1.1" xmlns="http://www.w3.org/2000/svg" xmlns:xlink="http://www.w3.org/1999/xlink" x="0px" y="0px"
	 width="89.833px" height="365px" viewBox="154.667 0 89.833 365" enable-background="new 154.667 0 89.833 365"
	 xml:space="preserve">
	 <filter id="glow">
        <feGaussianBlur in="SourceGraphic" stdDeviation=".6" />
    </filter>
<g id="bouquet">
	<g id="small">
			<g id="Group_6_" transform="translate(27.500000, 321.000000) rotate(-180.000000) translate(-27.500000, -321.000000) translate(0.000000, 279.000000)">
			<path id="Path-1_1_" fill="none" stroke="rgb(12,12,12)" stroke-width="1.107" d="M-109.422,113.437
				c0.836-11.843,7.398-14.059,7.785-22.531c0.442-9.678-6.674-16.329-14.576-16.235c-2.963,0.035-5.604,1.12-7.754,2.944"/>
			<path id="Path-2_3_" fill="none" stroke="#FFAE42" filter="url(#glow)" d="M-116.493,112.969c0.171-9.343-0.179-28.403-4.332-25.477
				c-4.06,2.86-0.481,4.991,5.166,5.627c5.796,0.653,7.298-4.605,4.336-5.166c-4.919-0.933-3.19,16.707-3.071,25.142"/>
			<path id="Path-3_1_" fill="none" stroke="rgb(12,12,12)" stroke-width="1.107" d="M-129.709,93.618
				c1.11,6.793,7.746,10.157,8.524,19.57"/>
			<g id="Path-4">
				<path fill="rgb(12,12,12)" d="M-115.53,132.297c-0.67,0-1.146-0.063-1.405-0.119c-0.063-0.354-0.112-0.968-0.112-1.508
					c0-0.509-0.387-0.937-0.892-0.994c-0.02-0.002-1.922-0.234-2.405-1.585c-0.775-2.168-1.646-9.407-1.026-12.725
					c1.054-0.161,3.246-0.302,5.864-0.302c3.479,0,5.494,0.242,6.254,0.439c0.349,5.862-0.193,12.495-1.729,13.391
					c-0.485,0.282-1.117,0.524-1.827,0.699c-0.44,0.107-0.752,0.498-0.762,0.95c-0.014,0.706-0.163,1.366-0.298,1.572
					C-114.137,132.207-114.739,132.297-115.53,132.297 M-115.53,133.297c0.83,0,1.676-0.094,2.123-0.287
					c0.77-0.332,0.832-2.205,0.837-2.445c0.783-0.192,1.502-0.462,2.093-0.807c3.104-1.811,2.185-14.898,2.185-14.898
					c-0.647-0.57-3.957-0.795-7.214-0.795c-2.938,0-5.834,0.183-6.693,0.458c-0.941,3.259,0.073,11.556,0.914,13.905
					c0.708,1.979,3.238,2.242,3.238,2.242s0,1.614,0.271,2.183C-117.638,133.143-116.597,133.297-115.53,133.297L-115.53,133.297z"
					/>
			</g>
		</g>
		<path id="Path-5_3_" fill="none" stroke="rgb(12,12,12)" stroke-width="2" d="M170.287,228.625c-0.483-28.717,0.509-72.45-0.225-86.74
			c-0.792-15.403-1.581-46.625-1.5-76.346c0.092-33.787,0.469-63.542,0.469-63.542"/>
	</g>
	<g id="medium" transform="translate(1.000000, 1.000000)">
		
			<g id="Group_5_" transform="translate(27.500000, 321.000000) rotate(-180.000000) translate(-27.500000, -321.000000) translate(0.000000, 279.000000)">
			<path id="Path-6_1_" fill="none" stroke="rgb(12,12,12)" d="M-159.919,151.78c1.891-12.996,10.599-31.012,8.377-40.905
				c-1.218-5.426-5.177-12.761-16.625-12.625c-11.447,0.136-16.389,5.862-17.375,11.375c-1.91,10.673,5.866,29.313,7.96,41.917"/>
			<path id="Path-7_1_" fill="none" stroke="#FFAE42" filter="url(#glow)" d="M-170.408,150.793c-0.386-12.396,0.75-37.3-4.759-36.71
				c-4.04,0.432-2.391,7.15,6.145,8.044c7.69,0.805,11.394-6.288,7.165-7.38c-7.092-1.832-6.926,24.228-6.478,36.48"/>
			<path id="Path-8_1_" fill="rgb(12,12,12)" d="M-177.253,174.18c0.277,0.709,1.146,1.281,2.353,1.7c0.004,0.272,0.05,1.866,0.591,2.466
				c0.542,0.598,7.326,0.694,9.563,0.184c1.797-0.41,1.832-2.882,1.832-2.882l-0.049,0.001c0.467-0.179,0.912-0.374,1.305-0.603
				c4.496-2.624,3.165-21.582,3.165-21.582c-1.784-1.574-17.524-1.33-20.148-0.49C-180.005,157.696-178.569,170.815-177.253,174.18z
				"/>
		</g>
		<path id="Path-9_1_" fill="rgb(12,12,12)" d="M220.833,3.333c0,0,1.835,25.235,1.981,51.844c0.153,27.608,0.714,50.258-0.147,58.489
			c-1.177,11.253,0.193,46.37-0.608,69.086l3.771-0.002c-0.038-29.161-0.294-54.72,0.838-67.084
			c1.211-13.24-0.422-35.436-0.41-60.024C226.271,29.276,225,3.5,225,3.5L220.833,3.333z"/>
	</g>
	<g id="large">
		
			<g id="Group_4_" transform="translate(27.500000, 321.000000) rotate(-180.000000) translate(-27.500000, -321.000000) translate(0.000000, 279.000000)">
			<path id="Path-10_1_" fill="none" stroke="rgb(12,12,12)" d="M-127.292,63.249c1.243-11.958,5.409-15.68,9.625-20.589
				c3.455-4.023,9.061-11.69,6.167-24.577c-1.451-6.463-11.839-19.245-25.476-19.084s-21.358,5.661-25.858,19.828
				c-2.301,7.244,0.334,18.833,6.167,24.5c3.249,3.156,7.065,8.45,8.518,19.55"/>
			<path id="Path-11_1_" fill="none" stroke="#FFAE42" filter="url(#glow)"  d="M-140.742,62.419c0.954-13.848,0.396-38.324-6.008-37.211
				c-4.769,0.829-1.619,5.903,8.125,7c10,1.125,12.736-9.031,7.625-10c-8.459-1.604-6.613,25.949-5.183,40.064"/>
			<path id="Path-12" fill="rgb(12,12,12)" d="M-147.847,90.094c0.486,1.242,2.485,2.139,5.073,2.605l-0.039,0.001
				c0,0,0,2.784,0.515,3.764c0.47,0.894,6.36,1.036,8.304,0.273c1.56-0.612,1.589-4.3,1.589-4.3l-0.354,0.009
				c1.312-0.314,2.511-0.751,3.488-1.321c5.354-3.125,3.771-25.708,3.771-25.708c-2.125-1.875-20.875-1.584-24-0.584
				C-151.125,70.458-149.415,86.085-147.847,90.094z"/>
		</g>
		<path id="Path-13" fill="none" stroke="rgb(12,12,12)" d="M195.208,264.456c-1.172-32.456-0.624-83.622-2.042-99.956
			c-1.511-17.405,1.005-51.244,1.159-84.833C194.501,41.481,193.25,4,193.25,4"/>
		<path id="Path-14" fill="none" stroke="rgb(12,12,12)" d="M190.583,264.334c-0.224-40.473-1.201-81.25-2.474-98
			c-1.443-19,2.131-50.715,2.115-86C190.208,42.498,187.75,5,187.75,5"/>
	</g>
</g>
</svg>
