<?xml version="1.0" encoding="UTF-8"?>
<!DOCTYPE svg  PUBLIC '-//W3C//DTD SVG 1.1//EN'  'http://www.w3.org/Graphics/SVG/1.1/DTD/svg11.dtd'>
<svg width="57px" height="365px" enable-background="new 78.667 0 57 365" version="1.1" viewBox="78.667 0 57 365" xml:space="preserve" xmlns="http://www.w3.org/2000/svg">
	<filter id="a">
        <feGaussianBlur in="SourceGraphic" stdDeviation=".4"/>
    </filter>
		<path d="m97.227 300.37c-1.322 11.468-5.416 15.145-9.559 19.968-3.455 4.023-9.061 11.69-6.167 24.577 1.451 6.463 11.839 19.245 25.476 19.084s21.358-5.661 25.858-19.828c2.301-7.244-0.334-18.833-6.167-24.5-3.24-3.148-7.046-8.423-8.507-19.466" fill="none" stroke="#0c0c0c"/>
		<path d="m110.71 301.04c-0.91 13.921-0.293 37.852 6.04 36.75 4.769-0.829 1.619-5.903-8.125-7-10-1.125-12.736 9.031-7.625 10 8.444 1.602 6.619-25.859 5.189-39.996" fill="none" filter="url(#a)" stroke="#FFAE42"/>
		<path d="m117.85 272.91c-0.486-1.242-2.485-2.139-5.073-2.605l0.039-1e-3s0-2.784-0.515-3.764c-0.47-0.894-6.36-1.036-8.304-0.273-1.56 0.612-1.589 4.3-1.589 4.3l0.354-9e-3c-1.312 0.314-2.511 0.751-3.488 1.321-5.354 3.125-3.771 25.708-3.771 25.708 2.125 1.875 20.875 1.584 24 0.584 1.625-5.625-0.085-21.252-1.653-25.261z" fill="#0c0c0c"/>
	<path d="m110.27 264.5c-1.202-32.428-1.678-83.56-3.104-100-1.511-17.405 1.005-51.244 1.159-84.833 0.176-38.186-1.492-73-1.492-73" fill="none" stroke="#0c0c0c"/>
	<path d="m105.62 264.44c-0.216-40.705-2.236-81.259-3.516-98.104-1.443-19 2.131-50.715 2.115-86-0.016-37.835-4.558-73.583-4.558-73.583" fill="none" stroke="#0c0c0c"/>
</svg>
