<?xml version="1.0" encoding="utf-8"?>
<!-- Generator: Adobe Illustrator 16.0.0, SVG Export Plug-In . SVG Version: 6.00 Build 0)  -->
<!DOCTYPE svg PUBLIC "-//W3C//DTD SVG 1.1//EN" "http://www.w3.org/Graphics/SVG/1.1/DTD/svg11.dtd">
<svg version="1.1" xmlns="http://www.w3.org/2000/svg" xmlns:xlink="http://www.w3.org/1999/xlink" x="0px" y="0px" width="57px"
	 height="365px" viewBox="78.667 0 57 365" enable-background="new 78.667 0 57 365" xml:space="preserve">
<g id="old_bulb">
</g>
<g id="landing">
</g>
<g id="single">
	<g id="Group_1_">
		<path id="Path-1_3_" fill="none" stroke="#484747" d="M97.227,300.372c-1.322,11.468-5.416,15.145-9.559,19.968
			c-3.455,4.023-9.061,11.69-6.167,24.577c1.451,6.463,11.839,19.245,25.476,19.084s21.358-5.661,25.858-19.828
			c2.301-7.244-0.334-18.833-6.167-24.5c-3.24-3.148-7.046-8.423-8.507-19.466"/>
		<path id="Path-2_1_" fill="none" stroke="#FFAE42" d="M110.711,301.042c-0.91,13.921-0.293,37.852,6.04,36.75
			c4.769-0.829,1.619-5.903-8.125-7c-10-1.125-12.736,9.031-7.625,10c8.444,1.602,6.619-25.859,5.189-39.996"/>
		<path id="Path-3_3_" fill="#5E5B5B" d="M117.848,272.906c-0.486-1.242-2.485-2.139-5.073-2.605l0.039-0.001
			c0,0,0-2.784-0.515-3.764c-0.47-0.894-6.36-1.036-8.304-0.273c-1.56,0.612-1.589,4.3-1.589,4.3l0.354-0.009
			c-1.312,0.314-2.511,0.751-3.488,1.321c-5.354,3.125-3.771,25.708-3.771,25.708c2.125,1.875,20.875,1.584,24,0.584
			C121.126,292.542,119.416,276.915,117.848,272.906z"/>
	</g>
	<path id="Path-6_2_" fill="none" stroke="#191818" d="M110.271,264.5c-1.202-32.428-1.678-83.56-3.104-100
		c-1.511-17.405,1.005-51.244,1.159-84.833c0.176-38.186-1.492-73-1.492-73"/>
	<path id="Path-5_2_" fill="none" stroke="#0D0C0C" d="M105.625,264.437c-0.216-40.705-2.236-81.259-3.516-98.104
		c-1.443-19,2.131-50.715,2.115-86C104.208,42.498,99.666,6.75,99.666,6.75"/>
</g>
<g id="bouquet">
</g>
<g id="lamp">
</g>
</svg>
