<?xml version="1.0" encoding="UTF-8"?>
<!DOCTYPE svg  PUBLIC '-//W3C//DTD SVG 1.1//EN'  'http://www.w3.org/Graphics/SVG/1.1/DTD/svg11.dtd'>
<svg width="120px" height="363px" enable-background="new 273.5 1 120 363.001" version="1.1" viewBox="273.5 1 120 363.001" xml:space="preserve" xmlns="http://www.w3.org/2000/svg">
	<filter id="a">
		<feGaussianBlur in="SourceGraphic" stdDeviation=".4"/>
	</filter>
	<g fill="none">
		<path d="m314.6 330.1c-1.067 4.915-1.537 9.384-0.744 12.915 1.343 5.982 5.707 14.069 18.33 13.92 12.621-0.15 18.069-6.464 19.157-12.542 0.702-3.921 0.217-8.818-0.825-14.118" stroke="#0c0c0c"/>
		<path d="m334.94 329.9c0.43 8.08 1.51 14.581 4.363 14.275 4.063-0.434 2.403-7.188-6.178-8.087-7.731-0.809-11.455 6.322-7.204 7.42 3.682 0.951 5.417-5.57 6.174-13.798" filter="url(#a)" stroke="#FFAE42"/>
		<path d="m278.95 333.98c0.529 4.055 20.08 4.878 31.714 5.009" stroke="#0c0c0c"/>
		<path d="m389.52 333.46c-1.225 3.222-22.669 4.531-34.528 5.01" stroke="#0c0c0c"/>
		<path d="m389.52 333.46c0-23.79-41.567-40.899-42.604-44.25-4.198-13.555-1.258-18.46-12.659-18.46-11.402 0-8.462 4.905-12.659 18.46-1.038 3.351-40.629 19.513-42.642 44.775-0.755-5.781 44.15-8.148 55.094-8.148s55.47 2.844 55.47 7.623z" stroke="#0c0c0c"/>
	</g>
	<path d="m332.17 6.869s-0.232 40.881-0.218 78.673c0.012 35.246-1.621 67.062-0.41 86.041 1.132 17.721 0.876 54.361 0.838 96.159l3.771 3e-3c-0.802-32.563 0.568-82.899-0.608-99.029-0.861-11.799-0.301-44.266-0.147-83.839 0.146-38.142 0.942-78.246 0.942-78.246l-4.168 0.238z" fill="#0c0c0c"/>
</svg>
