<?xml version="1.0" encoding="utf-8"?>
<!-- Generator: Adobe Illustrator 16.0.0, SVG Export Plug-In . SVG Version: 6.00 Build 0)  -->
<!DOCTYPE svg PUBLIC "-//W3C//DTD SVG 1.1//EN" "http://www.w3.org/Graphics/SVG/1.1/DTD/svg11.dtd">
<svg version="1.1" xmlns="http://www.w3.org/2000/svg" xmlns:xlink="http://www.w3.org/1999/xlink" x="0px" y="0px" width="120px"
	 height="363.001px" viewBox="273.5 1 120 363.001" enable-background="new 273.5 1 120 363.001" xml:space="preserve">
	<filter id="glow">
		<feGaussianBlur in="SourceGraphic" stdDeviation=".6" />
	</filter>
<g id="lamp">
	<g id="Group_2_">
		<path id="Path-1_2_" fill="none" stroke="rgb(12,12,12)" d="M314.605,330.103c-1.067,4.915-1.537,9.384-0.744,12.915
			c1.343,5.982,5.707,14.069,18.33,13.92c12.621-0.15,18.069-6.464,19.157-12.542c0.702-3.921,0.217-8.818-0.825-14.118"/>
		<path id="Path-2_2_" fill="none" stroke="#FFAE42" filter="url(#glow)" d="M334.945,329.903c0.43,8.08,1.51,14.581,4.363,14.275
			c4.063-0.434,2.403-7.188-6.178-8.087c-7.731-0.809-11.455,6.322-7.204,7.42c3.682,0.951,5.417-5.57,6.174-13.798"/>
		<path id="Path-3_4_" fill="none" stroke="rgb(12,12,12)" d="M278.954,333.982c0.529,4.055,20.08,4.878,31.714,5.009"/>
		<path id="Path-4_1_" fill="none" stroke="rgb(12,12,12)" d="M389.519,333.457c-1.225,3.222-22.669,4.531-34.528,5.01"/>
		<path id="Path-5_1_" fill="none" stroke="rgb(12,12,12)" d="M389.519,333.457c0-23.79-41.567-40.899-42.604-44.25
			c-4.198-13.555-1.258-18.46-12.659-18.46c-11.402,0-8.462,4.905-12.659,18.46c-1.038,3.351-40.629,19.513-42.642,44.775
			c-0.755-5.781,44.15-8.148,55.094-8.148S389.519,328.678,389.519,333.457z"/>
	</g>
	<path id="Path-6_3_" fill="rgb(12,12,12)" d="M332.171,6.869c0,0-0.232,40.881-0.218,78.673c0.012,35.246-1.621,67.062-0.41,86.041
		c1.132,17.721,0.876,54.361,0.838,96.159l3.771,0.003c-0.802-32.563,0.568-82.899-0.608-99.029
		c-0.861-11.799-0.301-44.266-0.147-83.839c0.146-38.142,0.942-78.246,0.942-78.246L332.171,6.869z"/>
</g>
</svg>
