<?xml version="1.0" encoding="utf-8"?>
<!-- Generator: Adobe Illustrator 16.0.0, SVG Export Plug-In . SVG Version: 6.00 Build 0)  -->
<!DOCTYPE svg PUBLIC "-//W3C//DTD SVG 1.1//EN" "http://www.w3.org/Graphics/SVG/1.1/DTD/svg11.dtd">
<svg version="1.1" xmlns="http://www.w3.org/2000/svg" xmlns:xlink="http://www.w3.org/1999/xlink" x="0px" y="0px"
	  viewBox="-78.5 278 56.833 87.167" enable-background="new -78.5 278 56.833 87.167"
	 xml:space="preserve">
<filter id="glow">
    <feGaussianBlur in="SourceGraphic" stdDeviation=".8" />
</filter>
<g id="landing">
	<path id="Path-1_4_" fill="none" stroke="rgb(12,12,12)" d="M-40.448,345.166c1.322-11.857,5.416-15.659,9.559-20.646
		c3.455-4.16,9.061-12.088,6.167-25.412c-1.451-6.683-11.839-19.899-25.476-19.732c-13.637,0.167-21.358,5.854-25.858,20.502
		c-2.301,7.49,0.334,19.473,6.166,25.332c3.24,3.255,7.047,8.709,8.508,20.127"/>
	<path id="Path-2_4_" fill="none" stroke="#FFAE42" filter="url(#glow)" d="M-52,344.001c-1.083-14,0.083-40.917-7.972-39.327
		c-4.762,0.939-1.619,6.395,8.125,7.583c10,1.218,12.736-9.783,7.625-10.832c-8.444-1.735-6.041,27.68-4.611,42.992"/>
	<path id="Path-3_2_" fill="none" stroke="rgb(12,12,12)" stroke-width="0.5" d="M-60.542,347.541c0.148,1.812,19.625,2.665,19.864,0.492
		c0.239-2.172-19.69,0.625-19.423,2.419c0.267,1.793,18.705,2.57,18.543,0.146c-0.073-1.1-17.444-0.073-17.297,2.346
		c0.194,3.204,16.956,2.688,17.688,0.563c0.552-1.6-18.861-0.123-18.348,2.223s18.983,2.785,19.057,0.806
		c0.073-1.979-18.785-0.618-18.348,1.809c0.611,3.396,16.907,2.59,18.08,0.733c0.863-1.366-9.919-0.66-11.679,0.464
		c-0.841,0.538-0.919,2.461-0.048,3.005c1.172,0.732,5.618,0.732,6.4-0.05c0.513-0.513,0.544-1.068,0.171-1.288"/>
</g>
</svg>
